# xmcd CD database file
#
# Track frame offsets:
#	150
#	3816
#	16654
#	30243
#	46523
#	51010
#	68798
#	82865
#	96183
#	108969
#	123121
#	138948
#
# Disc length: 2141 seconds
#
# Revision: 2
# Processed by: cddbd v1.4PL0 Copyright (c) Steve Scherf et al.
# Submitted via: CDex 1.50beta10
#
DISCID=76085b0c
DTITLE=Timbalada - Motumba Bless
DYEAR=2002
DGENRE=Axé
TTITLE0=Mantra da paz
TTITLE1=Motumba
TTITLE2=Bossa nova do sertão
TTITLE3=Açúcar please
TTITLE4=Ongoroci pros orixás
TTITLE5=Ginga de balé
TTITLE6=Ralé
TTITLE7=Canção de paquerar
TTITLE8=Justifique baby
TTITLE9=Tugu du du
TTITLE10=Ekô Ekô
TTITLE11=Todo mundo junto
EXTD=YEAR: 2002
EXTT0=
EXTT1=
EXTT2=
EXTT3=
EXTT4=
EXTT5=
EXTT6=
EXTT7=
EXTT8=
EXTT9=
EXTT10=
EXTT11=
PLAYORDER=
